<?xml version="1.0" encoding="utf-8"?>
<!-- Generator: Adobe Illustrator 25.0.0, SVG Export Plug-In . SVG Version: 6.00 Build 0)  -->
<svg version="1.1" id="Layer_1" xmlns="http://www.w3.org/2000/svg" xmlns:xlink="http://www.w3.org/1999/xlink" x="0px" y="0px"
	 viewBox="0 0 500 500" style="enable-background:new 0 0 500 500;" xml:space="preserve">
<style type="text/css">
	.st0{fill:#FFFFFF;}
</style>
<path class="st0" d="M431,250.2L431,250.2c0,99.8-81.1,181.3-180.8,181.3c-100.2,0-180.8-81.5-180.8-181.3
	c0-100.3,80.6-181.4,180.8-181.4C349.9,68.8,431,149.9,431,250.2z M249.7,4.8L249.7,4.8c134.8,0,244.8,110.1,244.8,245.4
	c0,134.8-110,244.9-244.8,244.9C115,495.1,5.4,385,5.4,250.2C5.4,114.9,115,4.8,249.7,4.8z M249.7,486.6L249.7,486.6
	c130.5,0,236.2-106.2,236.2-236.4c0-130.6-105.7-236.8-236.2-236.8c-130.1,0-235.8,106.2-235.8,236.8
	C13.9,380.3,119.7,486.6,249.7,486.6z M34.4,210.1L34.4,210.1l11.9,3c1.7,0,3,0.5,4.7,0.5c1.3-0.5,2.6-0.9,3.8-1.3
	c1.3-0.9,2.1-1.7,3-3c0.9-1.7,1.7-3.4,2.1-5.6c0.9-2.1,0.9-4.3,0.9-6c-0.4-1.7-0.9-3-1.3-4.3c-0.9-0.9-2.1-2.1-3-2.6
	c-1.3-0.9-3-1.3-4.3-1.7l-11.9-3c-0.4-0.5-0.9-0.5-0.9-0.9c0,0,0-0.5,0-0.9l-0.4-0.4l-2.6,9.4h0.4l0.4-0.4c0.4-0.5,0.4-0.5,0.9,0
	l13.6,3c1.3,0.5,2.1,1.3,2.6,2.2c0.4,1.3,0.4,2.6,0,4.3c0,1.3-0.9,2.6-1.7,3.4c-0.9,0.9-1.7,0.9-3.4,0.4l-13.6-3
	c-0.4-0.5-0.4-0.5-0.4-0.9c-0.4,0-0.4-0.5-0.4-0.5h-0.4l-2.1,9l0.9,0.4c0-0.4,0.4-0.9,0.4-1.3C33.9,210.1,33.9,210.1,34.4,210.1z
	 M74.9,158.9L74.9,158.9l-20-8.9c-0.4-0.5-0.4-0.5-0.4-0.9c0-0.5,0-0.5,0-0.9l-0.4-0.5l-4.3,8.1l0.9,0.4c0-0.4,0.4-0.4,0.4-0.9
	c0.4,0,0.9,0,0.9,0l10.7,4.7c-1.7,0.4-3.4,0.9-5.1,1.3c-1.3,0.5-3,0.9-4.3,1.3c-1.3,0.4-2.6,0.9-3.4,1.3c-0.9,0-1.3,0-1.3,0
	c-0.4,0-0.9-0.4-0.9-0.4c0-0.5,0-0.9,0-0.9l-0.4-0.5l-4.7,11.5l0.4,0.4c0.4-0.4,0.4-0.9,0.9-0.9c0-0.4,0.4-0.4,0.9,0l20,9
	c0.4,0,0.9,0.4,0.9,0.4c0,0.5-0.4,0.9-0.4,1.3h0.9l3-8.1l-0.4-0.4c-0.4,0.4-0.4,0.4-0.9,0.9c0,0-0.4,0-0.9,0l-13.6-6v-0.5
	c2.1-0.4,4.3-1.3,6.8-1.7c2.1-0.9,3.8-1.3,5.5-1.7c1.7-0.9,3.4-1.3,4.7-1.3c0.9-0.5,1.7-0.5,2.1-0.5c0.4,0,0.4,0.5,0.4,0.9
	c-0.4,0.5-0.4,0.5-0.4,0.9l0.4,0.5l4.7-9h-0.9c0,0-0.4,0.5-0.4,0.9C75.7,158.9,75.3,158.9,74.9,158.9z M68.1,124.3L68.1,124.3
	l0.9,0.4c0-0.4,0-0.4,0-0.4l0.4-0.5c0.4,0,0.9,0.5,2.1,0.9c1.3,0,17.5,6.4,18.3,6.8c1.3,0.5,2.1,0.5,2.1,0.5c0,0.4,0.4,0.4,0.4,0.9
	c-0.4,0.4-0.4,0.4-0.4,0.9l0.4,0.4l6.8-8.9l-0.4-0.5c0,0.5-0.4,0.5-0.9,0.5c0,0.4-0.4,0.4-0.9,0c0,0-0.4-0.5-0.9-1.3
	c-0.4-1.3-11.1-18.3-11.5-18.8v-0.4c0-0.5,0-0.5,0-0.9l-0.4-0.5l-5.5,6.8l0.4,0.5c0.4-0.5,0.4-0.5,0.9-0.9h0.4c0,0,0.4,0.9,1.3,1.7
	c0.4,0.9,6.4,10.6,6.8,11.9c0,0-12.8-4.7-13.2-5.1c-0.9,0-1.3-0.5-1.3-0.5v-0.4c0-0.5,0.4-0.9,0.4-0.9l-0.4-0.5L68.1,124.3z
	 M120.1,96.6L120.1,96.6l-10.7,10.2l-3.8-4.3l7.2-6.8h0.4c0.4,0,0.9,0,0.9,0.5l0.9-0.5l-5.5-5.5l-0.4,0.4c0.4,0.5,0.9,0.9,0.9,1.3
	c-0.4,0-0.4,0.4-0.4,0.4l-7.3,6.8l-3-3.4l11.1-10.6h0.4c0.4,0,0.9,0,1.3,0.4l0.4-0.4l-5.5-5.6l-0.4,0.5c0.4,0.4,0.9,0.9,0.4,0.9
	c0,0.4,0,0.4,0,0.9L89.4,97.9l0.4,0.4c0.4,0,0.9-0.4,0.9-0.4c0.4,0,0.9,0,1.3,0.4l14.5,15.8c0.4,0.4,0.4,0.9,0.4,0.9
	c0,0.4-0.4,0.9-0.4,0.9l0.4,0.9l16.6-16.2c0.4-0.5,0.4-0.5,0.9-0.9c0,0,0.4,0,0.9,0.4l0.4-0.4l-5.1-5.1l-0.4,0.4
	C120.9,95.7,120.9,96.2,120.1,96.6z M118.4,74.4L118.4,74.4l12.4,18.4c0,0.4,0,0.4,0,0.9c0,0.4-0.4,0.4-0.4,0.4l0.4,0.9l7.3-5.5
	l-0.4-0.5c-0.4,0-0.4,0.5-0.9,0.5s-0.4,0-0.9-0.5l-4.3-6.8l4.3-2.6c0,0,5.5,3,6.4,3.4c0.9,0.5,1.3,0.9,1.3,0.9c0,0.5,0,0.9,0,0.9
	c-0.4,0.5-0.4,0.5-0.9,0.9l0.4,0.5l9.4-6l-0.4-0.5c-0.4,0-0.4,0.5-0.9,0.5c-0.4,0-0.9-0.5-1.3-0.5l-8.5-3.8c0.9-1.7,1.3-3.4,1.7-4.7
	c0-1.7-0.4-3.4-1.3-5.1c-1.7-2.2-3.4-3.4-5.5-3.9c-2.1,0-3.8,0.5-6.4,2.2l-13.6,9.4l0.4,0.9c0.4-0.4,0.4-0.4,0.9-0.4
	C117.9,74,117.9,74,118.4,74.4z M129,78.7L129,78.7l-3.4-5.1l6-4.3c1.3-0.9,2.1-1.3,3-0.9c0.9,0,1.3,0.4,1.7,1.3
	c0.9,0.9,0.9,1.7,0.9,2.6c-0.4,0.9-0.9,1.3-2.1,2.1L129,78.7z M155,68.4L155,68.4l1.3,8.1h0.4c0-0.5,0-0.9,0.4-0.9
	c0-0.5,0-0.5,0.4-0.5c0,0,0.4-0.4,1.3-0.4c0.4,0,1.7,0,2.6-0.5c1.3-0.4,2.1-0.4,3.4-0.9c1.3-0.4,2.6-0.9,3.8-1.3
	c1.7-0.9,3.4-1.7,4.3-3c1.3-0.9,2.1-1.7,2.6-3c0.4-1.3,0.9-2.1,0.9-3.4c0-0.9-0.4-2.1-0.9-3c-0.4-1.7-1.7-2.6-2.6-3
	c-1.3-0.9-2.6-0.9-3.8-0.9c-1.3,0-3,0.5-4.3,0.9c-1.3,0.5-3,0.9-3.8,1.3c-1.3,0.4-2.6,0.4-3.4,0.4c-0.9,0-1.3,0-1.7-0.9
	c-0.4-0.4-0.4-0.9,0-1.7c0.4-0.4,0.9-0.9,1.3-1.3c0.4-0.5,1.3-0.9,1.7-0.9c0.4-0.5,1.3-0.9,1.3-0.9c0.9-0.5,1.7-0.5,2.6-0.9
	c0.9,0,1.7-0.5,2.6-0.5c0.4,0,1.3,0,1.7,0c0.4,0,0.9,0,0.9,0.5l0,0c0,0.4,0,0.4,0,0.4h0.9v-8.1l-0.9,0.4c0,0,0,0,0,0.5
	c-0.4,0.4-0.4,0.4-0.9,0.4c0,0-0.4,0.5-1.3,0.5c-0.4,0-1.3,0.4-2.1,0.4c-0.9,0.5-2.1,0.5-3,0.9c-1.3,0.5-2.6,0.9-3.4,1.3
	c-2.1,0.9-3.4,2.1-4.7,3c-1.3,1.3-1.7,2.6-2.6,3.4c-0.4,1.3-0.4,2.6-0.4,3.4c0,1.3,0.4,2.2,0.4,3c0.9,1.3,1.7,2.6,3,3
	c0.9,0.5,2.1,0.5,3.8,0.5c1.3,0,2.6-0.5,3.8-0.9c1.7-0.5,3-0.9,4.3-1.3c1.3-0.4,2.1-0.4,3-0.4c0.9,0,1.7,0,2.1,0.9
	c0,0.4,0,0.9,0,1.3c-0.4,0.5-0.4,0.9-0.9,1.3c-0.4,0.4-0.9,0.9-1.3,1.3c-0.9,0-0.9,0.5-1.3,0.5c-0.9,0.4-2.1,0.9-3.4,1.3
	c-0.9,0.5-2.1,0.5-3,0.9c-1.3,0-2.1,0-3,0c-0.9,0-1.3,0-1.3-0.5c0-0.5,0-0.5,0-0.5v-0.4H155z M217.3,30.9L217.3,30.9l-21.7,4.3
	c0,0.4-0.4,0-0.4,0c-0.4,0-0.4-0.5-0.9-0.9h-0.4l1.7,8.5l0.4-0.5c0-0.4,0-0.9,0-0.9c0.4-0.4,0.4-0.4,0.9-0.4l7.2-1.3l3.4,17.1
	c0,0.5,0,0.9,0,0.9c-0.4,0.5-0.9,0.5-0.9,0.5V59l9.4-2.2l-0.4-0.4h-0.4c-0.4,0-0.9-0.5-0.9-0.9l-3.4-17.5l7.2-1.3c0.4,0,0.4,0,0.9,0
	c0,0,0.4,0.4,0.4,0.9h0.9l-1.7-8.1h-0.9c0,0.5,0,0.9,0,0.9C217.3,30.9,217.3,30.9,217.3,30.9z M243.3,52.6L243.3,52.6v-7.7l8.1-14.9
	c0-0.5,0-0.5,0.4-0.5s0.4-0.4,0.9-0.4v-0.5h-10.2v0.9h0.4c0.4,0,0.4,0,0.4,0.5c0,0,0,0.9-0.4,1.7c-0.4,0.4-3.4,6-3.4,6.4
	c-0.9-0.9-4.7-6-5.1-6.4c0-0.5-0.4-0.9-0.4-1.3c0-0.4,0-0.4,0.4-0.4s0.4,0,0.9,0v-0.9L224.1,30v0.9c0,0,0.4,0,0.9,0
	c0.4,0,0.4,0,0.4,0.4l10.7,14.1l0.4,7.7c0,0.4,0,0.4-0.4,0.9h-0.4v0.9l9-0.5v-0.9c0,0-0.4,0-0.9,0C243.7,53.1,243.7,53.1,243.3,52.6
	z M291.1,32.1L291.1,32.1c-1.7,0-3.4-0.4-4.7,0c-2.1,0-3.4,0.5-5.1,1.3c-1.3,0.9-3,2.1-3.8,3.4c-1.3,1.7-2.1,3.4-2.6,5.5
	c-0.4,2.6-0.4,4.3,0.4,6c0.4,2.2,1.3,3.4,2.1,4.7c1.3,1.3,2.6,2.1,4.3,3c1.3,0.9,3,1.3,4.7,1.7c1.7,0.5,3.4,0.5,5.1,0.5
	c1.7-0.5,3-0.9,4.7-1.7c1.3-0.5,3-1.7,3.8-3c1.3-1.7,2.1-3.4,2.6-6c0.4-2.1,0.4-3.8-0.4-6c-0.4-1.7-1.3-3-2.1-4.3
	c-1.3-1.3-2.6-2.6-4.3-3.4C294.5,33,292.8,32.6,291.1,32.1z M289.8,38.1L289.8,38.1c1.3,0.5,2.1,0.9,3,1.3c0.9,0.4,1.3,0.9,1.7,1.7
	c0.9,0.9,0.9,1.7,1.3,2.6c0,0.9,0,1.7,0,2.6c0,1.3-0.4,2.1-1.3,3c-0.4,0.9-0.9,1.3-1.7,1.7c-0.9,0.5-1.7,0.9-2.6,0.9
	c-0.9,0.5-1.7,0.5-3,0c-0.9,0-1.7-0.4-2.6-0.9c-0.9-0.4-1.3-1.3-1.7-1.7c-0.9-0.9-0.9-1.7-1.3-2.6c0-0.9,0-1.7,0-3
	c0-0.9,0.4-1.7,1.3-2.6c0.4-0.9,0.9-1.3,1.7-1.7c0.9-0.9,1.7-0.9,2.6-1.3C288.1,38.1,289,38.1,289.8,38.1z M312.4,39.4L312.4,39.4
	l-7.2,20.9c0,0.5-0.4,0.9-0.4,0.9c-0.4,0-0.9,0-1.3-0.4v0.9l9.4,3v-0.9c-0.5,0-0.5-0.4-0.9-0.4c0-0.5-0.5-0.5,0-0.9l2.6-7.7l8.9,3.4
	c0,0,0.5,0,0.5,0.4c0.4,0,0.4,0.5,0,1.3h0.9l2.1-7.3l-0.4-0.4c0,0.9-0.5,0.9-0.5,1.3c-0.4,0-0.9,0-0.9,0l-8.9-3.4l1.7-5.1l13.2,4.7
	c0.5,0,0.5,0.4,0.5,0.4c0.4,0.5,0.4,0.9,0,1.3l0.9,0.4l2.6-7.7h-0.9c0,0.5-0.5,0.9-0.5,0.9c-0.4,0-0.4,0-0.9,0l-21.3-7.7l-0.4,0.9
	c0.4,0,0.9,0.5,1.3,0.5C312.4,39,312.4,39,312.4,39.4z M354.6,72.3L354.6,72.3l9.8,6.4l-4.7,7.3c0,0.4-0.5,0.4-0.9,0.4
	c0,0-0.5,0-0.9-0.4l-0.5,0.9l8.1,5.5l0.4-0.4c-0.4-0.5-0.4-0.9-0.9-0.9c0-0.5,0-0.5,0-0.9l11.9-18.8c0-0.5,0.5-0.5,0.9-0.5
	c0,0,0.5,0,0.9,0.5l0.5-0.9l-8.1-5.6l-0.4,0.4c0.4,0.5,0.4,0.5,0.9,0.9c0,0.5,0,0.5-0.5,0.9l-3.8,6.4l-9.8-6l4.3-6.4
	c0-0.4,0.5-0.4,0.5-0.4c0.4,0,0.9,0,1.3,0v-0.5l-8.5-5.1l-0.4,0.9c0.4,0,0.9,0.5,0.9,0.9c0.4,0,0.4,0.5,0,0.9l-11.5,18.8
	c-0.4,0.4-0.4,0.4-0.9,0.4c-0.4,0-0.4-0.4-0.9-0.4l-0.4,0.4l8.5,5.1l0.4-0.4c-0.4-0.5-0.9-0.9-0.9-0.9c0-0.5,0-0.9,0-0.9L354.6,72.3
	z M386.2,109.8L386.2,109.8l6,6.4l0.9-0.9c-0.5,0-0.5,0-0.5-0.4c-0.4,0-0.4-0.5,0-0.5c0-1.3,7.3-22.2,7.3-23
	c0.4-0.9,0.9-1.3,0.9-1.3c0-0.5,0.4-0.5,0.9,0l0.4-0.9l-8.1-7.3l-0.5,0.9c0.5,0,0.5,0.5,0,0.9c0,0-0.9,0.5-2.1,0.9
	c-1.3,0.9-17.5,9-20.1,10.2c-0.4,0-0.4,0-0.4,0c-0.5,0-0.5,0-0.9,0l-0.5,0.5l6.4,5.1l0.4-0.9h-0.4c0-0.5,0-0.5,0-0.9
	c0.4,0,0.4,0,0.9,0c0.4-0.5,3-1.7,3-1.7l9,8.1c0,0.5-0.9,3-0.9,3.4c-0.5,0.5-0.5,0.5-0.5,0.9c-0.4,0-0.4,0-0.4,0
	c-0.5,0-0.5,0-0.5-0.4L386.2,109.8z M390.4,100.8L390.4,100.8l-6.4-6l9.8-4.7L390.4,100.8z M427.1,167.8L427.1,167.8l3.9,8.1
	l0.4-0.4c0,0,0,0,0-0.5c0-0.4,0-0.4,0-0.4c0.9-0.9,14.5-17.9,15.3-18.8c0.5-0.9,0.9-1.3,1.3-1.3c0,0,0.4,0,0.9,0.5l0.4-0.5l-5.1-9.4
	h-0.4c0,0.5,0,0.9-0.5,0.9c0,0.5-0.9,0.5-2.1,0.5c-1.7,0.4-19.6,2.1-22.6,2.1c-0.5,0-0.5,0-0.5,0c-0.4,0-0.4-0.4-0.4-0.4l-0.9,0.4
	l3.9,6.8l0.9-0.4c0,0,0,0,0-0.5c-0.5,0,0-0.4,0-0.4c0.4,0,0.4,0,0.9,0c0.4,0,3-0.5,3.4-0.5l5.5,10.7c0,0.4-2.1,2.6-2.1,3
	c-0.5,0.5-0.5,0.5-0.5,0.5c-0.4,0-0.9,0-0.9,0s0,0,0-0.5L427.1,167.8z M434.4,161L434.4,161l-4.3-7.7l11.1-0.9L434.4,161z
	 M419,107.7L419,107.7l-6-6.8l-0.4,0.5v0.4c0,0,0,0.5-0.5,0.9L399,120.9c-0.5,0-1.3,0-1.7-0.5l-0.5,0.5l6.8,8.1l0.5-0.4
	c0-0.5,0-0.5-0.5-0.9c0-0.5,0-0.5,0.5-0.5c0-0.4,0.4-0.4,1.3-0.9c0.5,0,10.2-3.4,11.1-3.8c0.9,0,1.3-0.5,1.3-0.5h0.4
	c-0.4,0.5-0.9,0.9-1.3,1.3c-0.5,0.9-6,9.4-6.4,9.8c-0.4,0.9-0.9,1.3-1.3,1.3c0,0-0.5,0-1.3-0.9l-0.4,0.4l6,9l0.9-0.5
	c-0.5-0.9-0.5-1.3,0-1.7c0,0,20.1-7.7,20.5-7.7c0.5-0.4,0.5-0.4,0.9-0.4c0.5,0,0.9,0,0.9,0.4l0.9-0.4l-4.7-7.3l-0.5,0.5
	c0,0.4,0,0.9,0.5,0.9c0,0.4-0.5,0.9-0.5,0.9c-0.4,0.4-13.6,5.5-14.1,6v-0.5c0,0,7.7-11.1,8.1-11.5c0.5-0.9,0.5-0.9,0.9-1.3
	c0,0,0.5,0,0.9,0c0,0,0.5,0.5,0.9,0.9l0.5-0.4l-6.4-8.5l-0.4,0.4c0,0.5,0,0.5,0,0.9c0.4,0.5,0,0.5,0,0.9c-0.5,0-0.9,0.5-1.3,0.5
	c-0.9,0.4-13.2,4.7-13.6,4.7c0.4-0.4,8.9-11.9,9.4-11.9c0-0.4,0.4-0.4,0.9-0.4c0.4,0.4,0.4,0.4,0.9,0.9L419,107.7z M459.5,181
	L459.5,181l-3.4-9.8h-0.4c0,0.4,0,0.9,0,1.3c0,0.5,0,0.5-0.5,0.9l-20.9,7.3c-0.5,0.4-0.5,0-0.9,0c0-0.5-0.5-0.9-0.5-1.3l-0.9,0.5
	l3.4,9.8l0.9-0.5c-0.4-0.4-0.4-0.9-0.4-1.3c0,0,0.4-0.5,0.9-0.5l20.5-7.7c0.4,0,0.9,0,0.9,0.4c0.4,0,0.4,0.5,0.9,0.9H459.5z
	 M186.6,37.7L186.6,37.7l-10.2,3.4l0.4,0.9c0.4-0.5,0.9-0.5,1.3-0.5c0.4,0,0.4,0.5,0.4,0.9l7.2,20.9c0,0.4,0,0.4-0.4,0.9
	c0,0-0.4,0.4-0.9,0.4v0.9l9.8-3.4v-0.4c-0.9,0-0.9,0-1.3,0c-0.4,0-0.4,0-0.9-0.5l-6.8-20.9c0-0.5,0-0.9,0.4-1.3c0,0,0.4,0,0.9-0.4
	V37.7z M64.2,130.3L64.2,130.3l-5.5,8.9h0.9c0-0.4,0.4-0.4,0.4-0.9c0.4,0,0.9,0,1.3,0L80,149.9c0.4,0.4,0.4,0.4,0.4,0.9
	c0,0.4-0.4,0.9-0.4,1.3l0.4,0.5l5.5-9l-0.9-0.4c0,0.4-0.4,0.9-0.4,0.9c-0.4,0.4-0.9,0.4-1.3,0l-18.8-11.5c-0.4,0-0.4-0.4-0.4-0.9
	c0,0,0.4-0.4,0.4-0.9L64.2,130.3z M467.2,211L467.2,211l-2.1-10.2h-0.5c0,0.4,0,0.9,0,1.3c0,0.5-0.4,0.5-0.9,0.5l-21.3,4.7
	c-0.4,0-0.9,0-1.3-0.4c0,0,0-0.5-0.5-0.9h-0.4l2.1,10.2h0.5c0-0.9,0-1.3,0-1.3c0-0.4,0.4-0.9,0.9-0.9l21.3-4.3c0.4-0.4,0.9,0,0.9,0
	c0.4,0.5,0.4,0.9,0.9,1.3H467.2z M466.8,194.3L466.8,194.3l1.7-0.4c-0.9-0.9-1.3-1.7-2.2-2.6c-0.9-0.9-1.7-1.3-2.6-2.2
	c-1.3-0.4-2.1-0.9-3.4-0.9c-0.9,0-2.1,0-3.4,0.5c-1.3,0.4-2.1,0.9-3,1.7c-0.9,0.9-1.3,2.1-0.9,3.4c0.4,1.3,0.9,2.1,1.7,2.6
	c0.9,0.4,2.1,0.9,3.4,0.4c1.3-0.4,2.1-1.3,2.6-2.1c0.4-1.3,0.4-2.2,0-3.4c1.3,0,2.6,0,3.4,0.9C465.1,192.6,465.9,193.4,466.8,194.3z
	 M297.5,438.8L297.5,438.8l6.4-2.1 M297.1,437.5L297.1,437.5l0.9,2.6l6.4-2.1l-0.9-2.6L297.1,437.5z M407.9,399.9L407.9,399.9
	l5.1-5.1l-0.4-0.5h-0.5c0,0-0.4,0-0.9,0l-11.5-3c0-0.9-0.5-4.7-0.5-6c-0.4-0.9-0.4-1.7-0.4-2.6c0-0.9,0.4-1.3,0.4-1.7l-0.4-0.5
	l-4.7,5.6l0.5,0.4c0-0.4,0.4-0.4,0.4-0.4c0.5,0,0.5,0,0.9,0c0,0.4,0,0.4,0,0.9c0,0.4,0.5,0.9,0.5,1.7c0,0.4,0.4,8.1,0.4,8.5l-6-6
	c-0.4,0-0.4,0,0-0.5c0-0.4,0-0.4,0-0.9h-0.4l-4.7,4.7l0.5,0.4c0-0.4,0.4-0.4,0.4-0.4c0.5-0.5,0.5,0,0.9,0l11.9,11.9
	c0.5,0,0.5,0.4,0.5,0.4c0,0.5,0,0.5-0.5,0.9h0.5l4.7-4.3v-0.4c-0.4,0-0.4,0-0.9,0.4c0,0-0.4,0-0.4-0.4l-2.6-2.6l-0.9-4.7
	c0.4,0,7.2,1.7,7.2,2.2c0.5,0,0.9,0,0.9,0c0,0.4,0.5,0.4,0,0.9c0,0.4,0,0.4,0,0.4V399.9z M311.5,459.7L311.5,459.7l5.6-1.7l-0.5-0.9
	c0,0,0,0-0.4,0l0,0c-0.9-0.9-9.8-13.7-10.3-14.1c-0.4-0.9-0.9-0.9-0.9-1.3c0,0,0-0.4,0.4-0.4v-0.4l-7.2,1.7v0.9c0.4,0,0.4,0,0.4,0
	c0,0.4,0,0.9,0,2.1c0,1.3-0.9,14.1-1.3,16.6c0,0,0,0,0,0.4h-0.4v0.4l5.1-1.3v-0.4c0,0,0,0-0.4,0l0,0c0-0.4,0-0.4,0-0.9
	c0,0,0-2.1,0-2.6l8.1-2.1c0,0,1.3,1.7,1.3,2.1c0.4,0.4,0.4,0.4,0.4,0.4c0,0.4,0,0.4,0,0.4h-0.4L311.5,459.7z M307.7,453.3
	L307.7,453.3l-5.5,1.3l0.9-8.1L307.7,453.3z M365.3,435.4L365.3,435.4l4.7-3.4v-0.4c-0.5,0.4-0.5,0.4-0.5,0.4c-0.4,0-0.4,0-0.4-0.4
	c-0.9-0.4-13.2-10.2-13.6-10.7c-0.5-0.4-0.9-0.9-0.9-0.9c-0.5-0.4,0-0.4,0-0.4v-0.9l-6.4,3.8v0.4c0.5,0,0.5,0,0.9,0.4
	c0,0,0,0.9,0.5,1.7c0,1.3,2.6,14.1,3,16.2c0,0.4,0,0.4,0,0.4c0,0.4,0,0.4-0.4,0.4l0.4,0.4l4.7-2.6l-0.5-0.4c-0.4,0-0.4,0-0.4,0
	c0-0.4,0-0.4-0.5-0.9c0,0,0-2.1-0.4-2.1l7.2-4.3c0,0,1.7,1.3,2.2,1.3c0,0.4,0.4,0.4,0.4,0.4c0,0.4,0,0.4,0,0.4
	c0,0.4-0.4,0.4-0.4,0.4L365.3,435.4z M360.1,430.2L360.1,430.2l-5.1,3l-1.7-8.1L360.1,430.2z M423.7,381.6L423.7,381.6l3.4-4.7
	l-0.4-0.5c0,0,0,0-0.5,0c0,0.5,0,0.5,0,0.5c-0.9-0.5-15.8-5.1-16.7-5.6c-0.9,0-1.3-0.4-1.3-0.4v-0.5l-0.5-0.4l-4.7,6h0.4
	c0.5,0,0.5,0,0.9,0c0,0,0.5,0.9,0.9,1.7c0.9,0.9,7.7,11.9,9,14c0,0,0,0,0,0.5c0,0,0,0,0,0.4h0.4l3.4-3.8l-0.4-0.5c0,0-0.5,0-0.5,0.5
	c0,0,0,0-0.4-0.5c0,0,0,0,0-0.4c-0.5,0-1.3-1.7-1.7-2.2l5.1-6.4c0.5,0,2.2,0.9,2.6,0.9h0.5c0.4,0.4,0.4,0.4,0.4,0.4
	c-0.4,0.5-0.4,0.5-0.4,0.5L423.7,381.6z M417.3,378.6L417.3,378.6l-3.8,4.7l-4.3-7.2L417.3,378.6z M290.7,444.7L290.7,444.7
	l-0.4-1.3c-0.4,0.4-0.9,0.9-1.7,1.3c-0.4,0.4-0.9,1.3-1.3,1.7c-0.4,0.9-0.4,1.7-0.9,2.6c0,0.4,0,1.3,0,2.6c0.4,0.9,0.9,1.7,1.3,2.6
	c0.4,0.9,1.3,0.9,2.1,0.9c0.9-0.4,1.3-0.9,1.7-1.3s0.9-1.3,0.4-2.6c0-0.9-0.4-1.7-1.3-2.1s-1.3-0.4-2.1-0.4c0-0.9,0-1.7,0.4-2.1
	C289.4,445.6,290.2,445.2,290.7,444.7z M320.1,435.8L320.1,435.8l-6.8,2.6l0.5,0.4c0.4,0,0.4,0,0.9,0c0,0,0.4,0,0.4,0.4l5.6,15.8
	c0.4,0.4,0.4,0.9,0,0.9c0,0-0.5,0.4-0.9,0.4l0.4,0.4l6.4-2.1v-0.9c-0.5,0.4-0.9,0.4-0.9,0.4c-0.5,0-0.5-0.4-0.5-0.4l-6-16.2
	c0,0,0-0.4,0.5-0.4c0-0.4,0.4-0.4,0.4-0.4V435.8z M374.6,404.6L374.6,404.6l-5.5,4.3v0.5c0.4,0,0.9-0.5,0.9-0.5c0.4,0,0.4,0,0.9,0.5
	l10.2,13.2c0.4,0.4,0.4,0.4,0,0.9c0,0,0,0.4-0.5,0.4l0.5,0.4l5.5-4.3l-0.4-0.4c0,0-0.5,0.4-0.9,0.4c0,0-0.5,0-0.5-0.4l-10.6-13.3
	c0,0,0-0.4,0-0.9c0,0,0.4,0,0.4-0.4V404.6z M347.8,443.5L347.8,443.5l-6.8-15.4c-0.5-0.4-0.5-0.4,0-0.9c0,0,0,0,0.4-0.4v-0.4l-6,3
	l0.5,0.4c0,0,0.4,0,0.9,0c0,0,0,0,0.4,0.4l3.4,7.7c-0.9-0.4-7.7-4.3-8.5-4.7c-0.4,0-0.9-0.4-0.9-0.4c0-0.4,0-0.4,0-0.9h0.5l-0.5-0.9
	l-7.7,3.4l0.5,0.4h0.4c0.5,0,0.5,0.4,0.5,0.4l7.2,15.4c0,0.4,0,0.4,0,0.9l-0.4,0.4v0.4l5.5-2.6v-0.4c-0.4,0-0.4,0.4-0.9,0.4
	c0-0.4-0.4-0.4-0.4-0.4l-4.7-10.7v-0.4c1.3,1.3,7.3,4.3,8.5,4.7c1.3,0.9,2.2,1.3,3,1.7c0.9,0.4,1.3,0.9,1.3,1.3v0.4
	c-0.4,0-0.4,0.4-0.9,0.4l0.5,0.4l6-3l-0.5-0.4c-0.4,0-0.4,0-0.9,0C348.2,443.9,348.2,443.9,347.8,443.5z M458.7,308.2L458.7,308.2
	l-16.2-5.1c-0.4,0-0.4-0.4-0.4-0.4c0-0.5,0-0.5,0-0.9h-0.5l-2.1,6h0.9v-0.5c0.4-0.4,0.4-0.4,0.9,0l8.5,2.6c-1.3,0.5-9,3-9.4,3
	c-0.9,0.4-0.9,0.4-1.3,0.4l-0.4-0.4v-0.5l-0.5-0.4l-3,8.1l0.9,0.5c0-0.5,0-0.9,0.4-0.9c0,0,0,0,0.5,0l16.2,5.1
	c0.4,0,0.4,0.4,0.4,0.4c0,0.5,0,0.5,0,0.9h0.5l2.1-5.5l-0.4-0.5c0,0.5-0.5,0.5-0.5,0.9c0,0-0.4,0-0.9,0l-11.1-3.8
	c1.7-0.5,8.1-2.6,9.4-3c1.3-0.4,2.2-0.9,3-1.3c0.9,0,1.7-0.5,1.7,0c0.4,0,0.4,0,0.4,0.4v0.5l0.5,0.4l1.7-6.4l-0.5-0.5
	c0,0.5-0.4,0.9-0.4,0.9H458.7z M419.9,354.7L419.9,354.7l14.5,8.5c0.4,0.4,0.9,0.4,0.9,0.4c0,0.5-0.5,0.5-0.5,0.5l0.5,0.4l3.4-5.1
	l-0.5-0.4l-0.4,0.4c-0.5,0-0.5,0-0.9,0l-4.7-3l2.2-3.4c0.4-0.9,0.9-1.7,0.9-2.6c0.4-0.9,0.4-1.3,0.4-2.2c0-0.9-0.4-1.7-0.9-2.6
	c-0.4-0.4-1.3-1.3-2.6-2.1c-0.9-0.5-2.1-0.9-3-0.9c-0.9,0-1.7,0-2.6,0c-0.5,0.4-1.3,0.9-1.7,1.7c-0.5,0.4-1.3,1.3-1.7,1.7l-4.7,8.1
	l0.4,0.5c0,0,0.5,0,0.5-0.5C419.4,354.3,419.9,354.3,419.9,354.7z M429.3,354.3L429.3,354.3l-4.7-2.6l1.7-3c0.9-0.9,1.3-1.3,1.7-1.7
	c0.5,0,1.3,0.4,2.2,0.9c0.9,0.4,1.3,0.9,1.3,1.3c0,0.9,0,1.7-0.4,2.6L429.3,354.3z M431,330.4L431,330.4c-0.5,0.9-0.9,2.2-0.9,3.4
	c0,1.3,0,2.2,0.4,3.4c0.5,1.3,1.3,2.2,2.2,3.4c0.9,0.9,2.1,1.7,3.8,2.6c1.7,0.5,3,0.9,4.7,0.9c1.3,0,2.6,0,3.4-0.9
	c1.3-0.4,2.1-1.3,3-2.1s1.3-1.7,1.7-2.6c0.5-1.3,0.9-2.2,0.9-3.4c0-1.3,0-2.6-0.4-3.4c-0.5-1.3-0.9-2.6-1.7-3.4
	c-1.3-0.9-2.6-1.7-3.9-2.6c-1.7-0.9-3.4-1.3-4.7-0.9c-1.3,0-2.6,0-3.9,0.4c-0.9,0.9-2.1,1.3-2.6,2.2
	C432.2,328.3,431.4,329.5,431,330.4z M435.2,332.1L435.2,332.1c0.4-0.4,0.9-0.9,1.3-1.3c0.5-0.5,0.9-0.9,1.7-1.3c0.5,0,1.3,0,1.7,0
	c0.9,0,1.7,0,2.2,0.5c0.9,0.4,1.7,0.9,2.1,1.3c0.5,0.5,0.9,0.9,0.9,1.7c0.5,0.5,0.5,0.9,0.5,1.7c0,0.5,0,1.3-0.5,1.7
	c0,0.9-0.4,1.3-0.9,1.7c-0.4,0.5-1.3,0.9-1.7,0.9c-0.4,0.5-1.3,0.5-2.1,0.5c-0.5,0-1.3,0-2.2-0.5c-0.9-0.4-1.3-0.9-1.7-1.3
	c-0.4-0.5-0.9-0.9-1.3-1.7c0-0.5-0.5-1.3-0.5-1.7C434.8,333.4,435.2,332.9,435.2,332.1z M54.8,344.5L54.8,344.5l11.5-6l-9,10.6
	l13.6-1.3l-11.1,6c-0.4,0.4-0.9,0.4-0.9,0c0,0-0.4,0-0.4-0.5l-0.4,0.5l3,5.1l0.4-0.5c-0.4,0-0.4-0.4-0.4-0.4l0.4-0.5L77,350
	c0-0.4,0.4-0.4,0.4,0c0.4,0,0.4,0,0.4,0h0.4l-3.8-6.8H74c0,0.5,0,0.5,0.4,0.5L74,344c0,0-0.4,0-0.9,0c-0.9,0.5-6.4,0.9-7.2,0.9
	c0.4-0.4,4.3-4.7,4.7-5.1c0.4-0.4,0.9-0.9,0.9-0.9h0.4c0,0,0,0,0,0.5l0.9-0.5l-3.4-6.8h-0.4c0,0.5,0,0.5,0,0.5
	c0,0.4-0.4,0.4-0.4,0.9l-14.9,7.7c-0.4,0-0.9,0-0.9,0l-0.4-0.5l-0.4,0.5l2.1,5.1l0.9-0.5c-0.4-0.4-0.4-0.4-0.4-0.9
	C54.4,344.9,54.4,344.5,54.8,344.5z M90.2,370.1L90.2,370.1l-7.7,6.4c-0.9,0.9-1.7,1.7-2.6,2.6c-0.4,0.9-0.9,1.7-1.3,3
	c0,0.9,0,1.7,0.4,3c0.4,1.3,0.9,2.2,2.1,3.4c0.9,1.3,1.7,2.2,3,2.6c0.9,0.9,2.1,0.9,3,0.9c0.9,0,2.1,0,3-0.4c0.9-0.5,2.1-1.3,3-1.7
	l7.7-6.8c0.4,0,0.4,0,0.9,0c0,0,0,0.4,0.4,0.4l0.4-0.4l-4.3-4.7l-0.4,0.5c0,0,0,0,0,0.4c0,0,0,0.5-0.4,0.5l-8.1,6.8
	c-0.9,0.9-1.7,1.3-2.6,0.9c-0.9,0-1.7-0.5-2.1-1.3c-0.9-0.9-1.3-1.7-1.3-2.6c0-0.9,0.4-1.7,1.3-2.6l8.5-6.8c0.4,0,0.4-0.4,0.4,0
	c0.4,0,0.4,0,0.4,0l0.4-0.4l-3.8-5.1l-0.4,0.4c0,0.5,0.4,0.5,0.4,0.9C90.7,369.6,90.7,370.1,90.2,370.1z M53.1,283.5L53.1,283.5
	l-9.8,2.1c-1.3,0-2.1,0.5-3.4,0.9c-0.9,0.5-1.7,1.3-2.1,2.2c-0.9,0.9-1.3,1.7-1.3,3c-0.4,0.9,0,2.2,0,3.9c0.4,1.7,0.9,2.6,1.7,3.8
	c0.4,0.9,1.3,1.7,2.1,2.2c0.9,0.5,2.1,0.5,3,0.9c1.3,0,2.1,0,3.4-0.4l9.8-2.2c0.4,0,0.4,0,0.9,0.4v0.5h0.9l-1.7-6.4h-0.4
	c0,0.5,0,0.5,0,0.5c-0.4,0.4-0.4,0.4-0.9,0.4l-10.7,2.2c-0.9,0.4-1.7,0.4-2.6-0.5c-0.4-0.4-0.9-1.3-1.3-2.1c0-1.3,0-2.2,0.4-2.6
	c0.4-0.9,0.9-1.3,2.1-1.7l10.7-2.2c0.4,0,0.4,0,0.4,0c0.4,0,0.4,0.5,0.4,0.5h0.4l-1.3-6.4h-0.4c0,0.5,0,0.5,0,0.9
	C53.6,283,53.6,283.5,53.1,283.5z M132.4,429.4L132.4,429.4l-8.5-6l2.6-3.4l5.5,3.8c0,0,0.4,0,0.4,0.4c0,0,0,0.4-0.4,0.9h0.4
	l3.4-4.7l-0.4-0.4c-0.4,0.4-0.4,0.9-0.9,0.9c0,0,0,0-0.4,0l-5.1-4.3l1.7-2.6l8.5,6c0.4,0,0.4,0,0.4,0.4c0,0,0,0.4-0.4,0.9h0.4
	l3.4-4.7l-0.4-0.4c0,0.4-0.4,0.4-0.4,0.4c-0.4,0.4-0.4,0-0.4,0l-13.2-9.4l-0.4,0.5c0.4,0.4,0.4,0.4,0.4,0.4c0,0.5,0,0.5,0,0.9
	l-9.8,13.7c-0.4,0.4-0.4,0.4-0.9,0.4h-0.4l-0.4,0.4l12.8,9c0.4,0.4,0.4,0.4,0.4,0.4c0.4,0.4,0,0.4,0,0.9l0.4,0.4l3.4-5.1h-0.4
	C133.3,429.4,132.9,429.4,132.4,429.4z M161,445.2L161,445.2l-9-4.7l2.1-3.8l6,3v0.4c0.4,0.4,0,0.4,0,0.9l0.4,0.4l2.6-5.5h-0.4
	c0,0.4-0.4,0.4-0.4,0.4c-0.4,0.4-0.4,0.4-0.4,0l-6-3l1.3-3l9.4,4.7c0.4,0,0.4,0,0.4,0.4c0,0,0,0.4-0.4,0.9h0.4l3-5.1l-0.4-0.4
	c-0.4,0.4-0.4,0.9-0.9,0.9c0,0,0,0-0.4,0l-14.1-7.7l-0.4,0.9c0.4,0,0.4,0,0.4,0.4c0.4,0,0.4,0.4,0,0.4l-7.7,15.4c0,0,0,0.4-0.4,0.4
	c0,0-0.4,0-0.9-0.4v0.4l14.1,7.3c0.4,0.4,0.4,0.4,0.4,0.4s0,0.4,0,0.9h0.4l2.6-5.1h-0.4C161.9,445.2,161.4,445.6,161,445.2z
	 M245,468.2L245,468.2h7.2v-0.4h-0.4c0-0.4-0.4-0.4-0.4-0.4l-5.5-11.1c0.4-0.4,3-3.4,3.8-4.3c0.9-0.9,1.3-1.3,1.7-1.7
	c0.9-0.9,1.3-0.9,1.7-0.9v-0.9h-7.2v0.9c0.4,0,0.4,0,0.9,0c0,0,0,0.4,0,0.9c0,0,0,0-0.4,0.4c0,0.4-0.4,0.9-0.9,1.3s-5.5,5.6-6,6
	v-8.1c0-0.4,0.4-0.4,0.4-0.4c0.4-0.4,0.4-0.4,0.9-0.4v-0.4l-6.8-0.4v0.4c0.4,0,0.4,0,0.9,0.4c0,0,0,0,0,0.4l-0.4,17.1
	c0,0.4,0,0.4-0.4,0.4c0,0.4-0.4,0.4-0.4,0.4v0.4l6.4,0.4v-0.4l-0.4-0.4c-0.4,0-0.4-0.4-0.4-0.4v-3.8l3.4-3.8c0,0.4,3.4,6.8,3.4,7.3
	c0,0.4,0.4,0.4,0.4,0.4c0,0.4-0.4,0.9-0.9,0.9H245V468.2z M108.6,416.2L108.6,416.2l5.5,4.7l0.4-0.4l-0.4-0.4v-0.4l3-11.9
	c0.4-0.5,4.3-0.9,5.5-0.9c0.9-0.5,1.7-0.5,2.6-0.5c0.9,0,1.3,0,1.7,0h0.4l-5.5-4.7l-0.4,0.4c0,0,0,0.5,0.4,0.5c0,0.4,0,0.4-0.4,0.9
	c0,0,0,0-0.4,0s-0.9,0.4-1.7,0.4c-0.4,0-8.1,0.9-8.5,0.9l5.5-6c0-0.4,0.4-0.4,0.4-0.4c0.4,0,0.4,0,0.9,0.4v-0.4l-4.7-4.7l-0.4,0.5
	c0.4,0,0.4,0.4,0.4,0.4c0,0.5,0,0.5-0.4,0.9L101.3,408l-0.4,0.5c-0.4,0-0.4-0.5-0.4-0.5l-0.4,0.5l4.7,4.7l0.4-0.4
	c0-0.4-0.4-0.4-0.4-0.9c0,0,0-0.4,0.4-0.4l2.1-3l4.7-0.9c0,0.4-1.3,7.3-1.7,7.7c0,0.4,0,0.4,0,0.4c-0.4,0.4-0.4,0.4-0.9,0.4
	l-0.4-0.4L108.6,416.2z M269.3,467.4L269.3,467.4l6-0.4v-0.4h-0.4c0-0.4-0.4-0.4-0.4-0.4c-0.4-0.9-6.8-15.4-7.2-15.8
	c0-0.9-0.4-1.3-0.4-1.3c0-0.4,0.4-0.4,0.4-0.4v-0.4l-7.2,0.4v0.4c0.4,0,0.4,0.4,0.4,0.4s0,0.9-0.4,1.7c-0.4,1.3-3.8,14.1-4.3,16.2
	c-0.4,0-0.4,0-0.4,0.4h-0.4v0.4h5.1v-0.4c-0.4-0.4-0.4-0.4-0.4-0.4c0-0.4,0-0.4,0-0.9c0.4,0,0.9-2.1,0.9-2.1l8.1-0.9
	c0.4,0.4,1.3,2.1,1.3,2.6v0.4c0,0.4,0,0.4,0,0.4h-0.4V467.4z M267.2,460.5L267.2,460.5l-6,0.4l2.6-8.1L267.2,460.5z M71,374.4
	L71,374.4l3.4,5.1l0.4-0.5l-0.4-0.4c0-0.5,0-0.5,0.4-0.5c0.4-0.9,9.4-13.7,9.8-14c0.4-0.9,0.9-0.9,0.9-0.9c0.4-0.5,0.4-0.5,0.9,0
	l0.4-0.5l-4.3-6h-0.4c0,0.5,0,0.5,0,0.9c-0.4,0-0.9,0-2.1,0.5c-0.9,0.4-13.6,3.4-15.8,4.3h-0.4c-0.4-0.5-0.4-0.5-0.4-0.5l-0.4,0.5
	l3,4.3v-0.5c0-0.4,0-0.4,0.4-0.4c0,0,0,0,0.4,0c0.4-0.5,2.1-0.9,2.6-0.9l4.7,6.8c-0.4,0.4-1.7,2.1-1.7,2.1c0,0.5-0.4,0.5-0.4,0.5
	h-0.4H71z M75.7,369.2L75.7,369.2l-3-5.1l8.1-1.7L75.7,369.2z M44.2,321.5L44.2,321.5l1.7,5.5h0.4c0-0.4,0-0.4,0-0.4
	c0-0.5,0.4-0.5,0.4-0.5c0.4-0.4,12.8-10.6,13.6-11.1c0.4-0.4,0.9-0.4,0.9-0.4c0.4-0.5,0.4,0,0.4,0h0.4l-2.1-7.3l-0.4,0.5
	c0,0,0,0.4-0.4,0.4c0,0-0.9,0-1.7,0c-1.3,0-14.5-0.4-16.6-0.4h-0.4c0-0.5,0-0.5,0-0.5h-0.9l1.7,5.1h0.4v-0.4c0,0,0,0,0.4-0.5
	c0,0,0,0,0.4,0c0.4,0,2.1,0.5,2.6,0.5l2.6,7.7c0,0-1.7,1.3-2.1,1.7H45c0,0.4-0.4,0.4-0.4,0l0,0H44.2z M50.1,317.6L50.1,317.6
	l-1.7-5.5l8.1,0.4L50.1,317.6z M177.6,456.3L177.6,456.3l5.5,1.7l0.4-0.4c-0.4,0-0.4,0-0.4-0.4c0,0,0,0,0-0.4
	c0-0.9-0.4-16.6-0.4-17.1c0-0.9,0.4-1.3,0.4-1.3c0-0.4,0-0.4,0.4-0.4v-0.4l-6.8-2.6v0.4v0.4c0,0.4-0.4,0.9-0.9,1.7
	c-0.9,0.9-9.4,11.1-10.7,12.8c-0.4,0-0.4,0-0.4,0c-0.4,0-0.4,0-0.4,0l-0.4,0.4l5.1,2.1v-0.4c-0.4-0.4-0.4-0.4-0.4-0.4
	c0.4-0.4,0.4-0.4,0.4-0.9c0.4,0,1.7-1.7,1.7-1.7l7.7,3v2.6v0.4c0,0,0,0.4-0.4,0.4l0,0L177.6,456.3z M178.5,449L178.5,449l-5.5-2.1
	l5.5-6.4V449z M210.1,444.3L210.1,444.3c-1.3,0-2.6,0-3.4,0c-1.3,0-2.6,0.4-3.4,1.3c-1.3,0.4-2.1,1.3-3,2.6
	c-0.9,1.3-1.3,2.6-1.7,4.3c-0.4,1.7-0.4,3.4,0,4.7c0.4,1.3,0.9,2.6,1.3,3.4c0.9,0.9,1.7,1.7,3,2.6c0.9,0.4,2.1,0.9,3,0.9
	c1.3,0.4,2.1,0.4,3.4,0.4c1.3-0.4,2.6-0.4,3.4-1.3c0.9-0.4,2.1-1.3,3-2.6c0.9-0.9,1.3-2.6,1.7-4.3c0.4-1.7,0.4-3.4,0-4.7
	c-0.4-1.3-0.9-2.6-1.7-3.4c-0.4-0.9-1.3-1.7-2.6-2.6C212.2,445.2,210.9,444.7,210.1,444.3z M209.2,449L209.2,449
	c0.4,0.4,0.9,0.4,1.7,0.9c0.4,0.4,0.9,0.9,1.3,1.3c0,0.9,0.4,1.3,0.4,2.1c0,0.4,0,1.3,0,2.1c0,0.9-0.4,1.3-0.9,2.1
	c-0.4,0.4-0.9,0.9-1.3,1.3c-0.4,0.4-1.3,0.9-1.7,0.9c-0.9,0-1.3,0-2.1,0c-0.4,0-0.9-0.4-1.7-0.9c-0.4-0.4-0.9-0.9-1.3-1.3
	c-0.4-0.4-0.4-1.3-0.4-1.7c-0.4-0.9-0.4-1.7,0-2.6c0-0.9,0.4-1.3,0.9-2.1c0.4-0.4,0.9-0.9,1.3-1.3c0.4-0.4,1.3-0.4,1.7-0.9
	C207.5,449,208.4,449,209.2,449z M443.8,290.7L443.8,290.7c-0.5,1.3-0.5,2.2,0,3.4c0,1.3,0.4,2.2,1.3,3.4c0.5,0.9,1.3,2.2,2.6,3
	c0.9,0.4,2.6,1.3,4.3,1.7c1.7,0,3.4,0,4.7,0c1.3-0.4,2.6-0.9,3.4-1.7c0.9-0.9,1.7-1.7,2.1-2.6c0.9-1.3,0.9-2.2,1.3-3.4
	c0-0.9,0.4-2.2,0-3.4c0-0.9-0.5-2.2-0.9-3.4c-0.9-0.9-1.7-1.7-2.6-2.6c-1.3-0.9-2.6-1.3-4.3-1.7c-1.7-0.5-3.4-0.5-4.7,0
	c-1.7,0-2.6,0.9-3.8,1.3c-0.9,0.9-1.7,1.7-2.2,3C444.2,288.6,444.2,289.4,443.8,290.7z M448.4,291.5L448.4,291.5
	c0-0.4,0.5-1.3,0.9-1.7c0-0.4,0.5-0.9,1.3-1.3c0.4-0.5,0.9-0.5,1.7-0.9c0.9,0,1.7,0,2.1,0c0.9,0.4,1.7,0.4,2.2,0.9
	c0.9,0.4,1.3,0.9,1.7,1.7c0.4,0.4,0.4,0.9,0.4,1.7c0.5,0.4,0.5,1.3,0,1.7c0,0.9,0,1.3-0.4,1.7c-0.5,0.9-0.9,1.3-1.7,1.3
	c-0.5,0.5-0.9,0.9-1.7,0.9c-0.5,0-1.3,0-2.2,0c-0.9-0.4-1.7-0.4-2.1-0.9c-0.5-0.4-1.3-0.9-1.3-1.3c-0.4-0.5-0.9-1.3-0.9-1.7
	C448,292.9,448,292.4,448.4,291.5z M186.2,269L186.2,269l8.5,3.4l-0.9-3.4l-8.1-3.4L186.2,269z M211.8,294.6L211.8,294.6
	c-2.1-0.9-3.4-1.3-3.8-1.7l-1.3-6c-0.4-3.4-1.3-8.5-1.3-9.4l-3.8-1.7c0,0.9,1.3,7.2,1.3,7.7l0.9,3.4c0,0.4,1.3,6.4,1.3,7.7
	c1.3,0.4,6.8,3.4,7.2,3.4L211.8,294.6z M233.1,306.5L233.1,306.5c0.4-1.3,2.6-9,3-10.2c0.4,0.9,2.6,6.4,4.3,9.4
	c1.3-2.6,4.3-9,4.7-9.8c0.4,0.9,3,9.4,3.4,11.5l3.4-2.1c-0.9-1.7-4.7-14.1-6-17.1c-0.9,1.3-4.3,9-5.1,10.7c-0.9-1.7-4.3-9-5.1-11.1
	c-0.9,2.1-5.1,15.8-5.1,16.7L233.1,306.5z M257,307.4L257,307.4c0.4-1.3,1.7-4.3,1.7-4.7l6.8-0.5c0,0.5,1.3,3.4,1.7,4.3l3-2.1
	c-0.9-2.2-6-12.9-8.1-17.1c-1.3,2.6-7.2,16.3-8.1,18L257,307.4z M260,299.7L260,299.7c0.4-1.3,1.7-4.7,2.1-6c0,0.9,1.7,4.3,2.1,5.5
	L260,299.7z M280.4,298L280.4,298c-1.7,0.4-3.8,1.3-4.3,1.7l0.9-6c0.4-3.4,1.3-8.5,1.3-9.4l-3.4,1.7c0,0.4-0.9,6.8-0.9,7.2l-0.4,3.4
	c0,0.5-0.9,6.4-1.3,7.7c1.3-0.5,7.2-2.6,7.7-3L280.4,298z M301.3,292.9L301.3,292.9c0.9-1.3,5.1-11.1,5.5-12.4
	c0.4,0.9,0.9,5.6,1.3,8.1c2.2-3,6.4-10.7,7.3-11.9c0,0.9,0,8.9,0,10.6l3-3c0-1.7,0-13.7-0.4-16.7v0.5c-1.3,1.7-6.4,11.5-7.7,13.2
	c0-1.3-0.9-8.1-1.3-10.2c-1.3,2.6-9.4,20.1-9.8,21.3L301.3,292.9z M322.2,284.3L322.2,284.3c0.9-1.3,3-5.1,3.4-6l6-2.6
	c0,0,0,3.4,0.4,4.7l3.4-3.8c0-1.7-0.9-11.9-1.3-15.8c-2.6,3.4-12.8,20.1-14.1,22.2L322.2,284.3z M327.3,274.9L327.3,274.9
	c0.9-1.3,3.4-6,4.3-6.8c0,0.4,0,3.8,0,4.7L327.3,274.9z M284.3,299.7L284.3,299.7c0.9-1.3,2.6-5.1,2.6-5.6l6.4-3
	c0,0.4,0.9,3.4,0.9,4.7l3.4-3.8c-0.4-1.7-3.4-11.1-4.7-14.5c-1.7,3.4-9.8,18.8-10.7,20.9L284.3,299.7z M288.5,290.7L288.5,290.7
	c0.4-1.3,2.6-5.5,3-6.4c0.4,0.4,0.9,3.4,1.3,4.7L288.5,290.7z M185.8,286L185.8,286c-0.9-1.3-9.8-18.8-11.1-21.3
	c-0.4,1.7-0.9,8.5-0.9,9.8c-1.3-1.7-6.8-11.5-8.1-13.7h-0.4c0,3,0.9,15,0.9,17.1l3.4,3c0-1.7-0.9-10.2-0.9-10.7
	c0.9,0.9,6,9,7.7,11.9c0.4-2.6,0.9-7.7,0.9-8.5c0.9,1.3,5.5,11.5,6.4,12.8L185.8,286z M202.4,292L202.4,292
	c-1.3-1.7-9.8-16.2-11.5-19.2h-0.4c-0.9,3.4-3,12.4-3.4,13.7l3.4,3.4c0.4-0.9,0.9-3.8,0.9-4.3l6,2.6c0.4,0.5,2.1,3.9,3,5.1
	L202.4,292z M191.7,283.5L191.7,283.5c0-0.9,0.4-3.9,0.4-4.7c0.9,1.3,3,5.1,3.4,6.4L191.7,283.5z M228.8,303.9L228.8,303.9
	c-0.9-2.1-8.5-18.4-10.2-21.3v-0.5c-1.3,3.9-4.3,13.3-4.7,15l3,3.8c0.4-1.3,1.3-4.3,1.3-4.7l6,3c0.4,0.9,2.1,4.3,2.6,5.6
	L228.8,303.9z M218.6,293.7L218.6,293.7c0.4-0.9,1.3-3.9,1.3-4.7c0.4,1.3,2.1,5.6,3,6.8L218.6,293.7z M228,350.5L228,350.5h-37.5
	c-1.7-6-3.4-12.4-4.7-18.8l-4.7-2.2c1.7,7.3,3.4,14.1,5.1,20.9h-50.7c-15.4-28.2-24.7-61.9-25.2-98.6h31.6l-1.7-3.9h-29.9
	c0.4-36.2,9.8-70.4,25.2-98.1h50.7c-2.1,8.1-4.3,16.2-6,25.1c0,0,1.3,0.5,2.1,0.9l1.7,0.5c1.7-9.4,3.8-18.4,6.4-26.4H213
	c0.9-1.7,2.6-4.3,2.6-4.3h-23.9c10.2-34.1,26-58.9,43.9-67.9c0,0-1.7,0.5-3,0.5c-1.3,0-6,0.9-6,0.9c-11.9,8.5-22.6,23.9-31.1,44.8
	c-3,6.8-5.5,14.1-8.1,21.8H138c17.1-29.5,41.8-52,70.4-63.1h-1.3c-1.7,0.4-6.4,1.7-6.4,1.7c-6,1.7-15.8,6-15.8,6
	c-20.5,13.2-38.4,32-51.6,55.5l0,0h-20.9l-3,4.3h21.7c-15.3,28.2-24.3,61.9-24.7,98.1h-29v3.9h29c0.4,36.7,9.4,70.4,24.3,98.6h-20.9
	c0,0,2.6,3.8,3,3.8h20c13.2,23,30.3,41.8,50.3,55.1c0,0,7.2,3,10.2,3.8c0,0,6,2.1,9.4,3c1.3,0.4,3,0.9,3,0.9
	c-27.7-11.9-51.2-33.7-68.2-62.7h49.9c2.1,8.1,5.1,15.4,8.1,22.6c8.5,20.5,18.8,35.4,30.3,43.9c0,0,3.4,0.4,6.4,0.9l2.1,0.4
	c-17.5-9.4-32.4-34.1-42.6-67.9h45.2L228,350.5z M422,251.9L422,251.9v0.4V251.9z M422,251.9L422,251.9V248h-28.1
	c-0.5-36.2-9.4-70-24.3-98.1H390l-3-4.3H367c-12.8-22.6-30.2-41.8-50.3-55.1c0,0-1.3-0.4-2.1-0.9c-0.9-0.4-6.4-2.1-6.4-2.1
	c-5.5-2.2-15.3-4.7-15.3-4.7c28.1,11.1,52.5,33.7,69.9,62.7h-49.9c-2.6-7.7-5.1-15-8.1-21.8c-8.5-20.9-19.2-36.2-30.7-44.8
	c0,0-1.7-0.5-3-0.5c-1.3,0-6-0.9-6-0.9c17.5,9,33.3,33.7,43.5,67.9h-7.3c0,0,0.4,1.7,0.9,4.3h7.7c2.6,8.1,4.7,17.1,6.4,26.4
	c0,0,2.1-0.9,3-1.3h0.9c-1.7-8.9-3.8-17.5-6-25.1h50.8c15.3,27.7,24.7,61.9,25.1,98.1h-30.2l-1.3,3.9H390
	c-0.4,36.7-9.4,70.4-25.1,98.6h-50.8c2.2-6.8,3.9-13.7,5.1-20.9l-4.3,1.7c-1.7,6.8-3,13.3-4.7,19.2h-38l-9,3.8H309
	c-10.2,33.7-25.6,58.5-43.1,67.9c0,0,4.3-0.9,5.5-0.9s3.4-0.4,3.4-0.4c11.1-9,21.3-23.9,29.9-43.9c3-7.3,6-14.5,8.1-22.6h49.9
	c-16.6,28.6-39.6,50.3-66.9,62.3c0,0,7.7-2.1,11.9-3.8c0,0,7.2-2.6,8.9-3.9l1.7-0.4c19.6-13.3,36.3-31.6,49.1-54.2H387
	c0.9-0.9,3-3.8,3-3.8h-20.5c15.3-28.2,23.9-61.9,24.3-98.6H422z M337.6,216.1L337.6,216.1l8.5-23.5c-11.5,2.2-35.8,13.7-73.4,51.2
	L337.6,216.1z M320.1,182.3L320.1,182.3c-4.7,1.3-21.7,10.2-44.8,50.3c9.4-9.8,27.7-25.1,38.4-32.4L320.1,182.3z M217.3,202.8
	L217.3,202.8c3.4,8.1,14.9,18.8,32.8,18.8c17.9,0,28.6-10.6,32.8-18.8H217.3z M286.4,192.2L286.4,192.2h-72.5c-1.7,0-3,1.3-3,3
	s1.3,3,3,3h72.5c1.7,0,3-1.3,3-3S288.1,192.2,286.4,192.2z M227.5,243.8L227.5,243.8c-37.5-37.5-61.8-49-73.8-51.2l9,23.5
	L227.5,243.8z M186.6,200.3L186.6,200.3c10.7,7.3,29,22.6,38.4,32.4c-23-40.1-40.1-49.1-44.8-50.3L186.6,200.3z M265.1,254
	L265.1,254l3-32c-4.3,2.1-9,3.4-14.1,3.8l-3,52.5c0,0.4-0.4,0.4-0.9,0.4s-0.9,0-0.9-0.4l-3-52.5c-5.1-0.4-9.8-1.7-14.1-3.4l3,31.6
	l-101.1-41.8c3,7.7,40.1,105.4,40.5,106.7l64,28.6l1.7-25.1c0,0,0-0.5,0.4-0.5l0.4,0.5l2.1,27.3l2.6,26c0,2.2,1.7,4.3,4.3,4.3
	c2.6,0,4.3-2.1,4.3-4.3l2.6-26l2.1-27.3l0.4-0.5c0.4,0,0.4,0.5,0.4,0.5l1.7,25.1l64-28.6c0.4-1.3,37.5-99,40.5-106.7L265.1,254z
	 M277.9,168.2L277.9,168.2c0.4-1.7,0.9-3.4,0.9-5.1c0-3.4-1.3-5.5-2.1-8.5c-0.9-2.1-1.7-4.3-2.6-7.2c-0.4-3.4-0.9-6.8-0.9-9.8
	c0-0.9,0-1.7,0-2.1c-1.7,0.9-3.4,1.7-4.7,2.6c-15.4,8.1-35.4,19.2-35.4,47.8c0,0.9,0,1.3,0,2.2h30.3
	C264.6,186.6,275.3,177.2,277.9,168.2z M289.4,133.3L289.4,133.3c-3.8-9.4,0.4-22.2,0.4-22.2c-20,4.7-23.9,17.1-29.9,18.4
	c-4.7,0.9-3.4-10.7-3.4-10.7s-29,15-38.8,38c-8.5,20-0.9,31.2-0.9,31.2h10.7c-0.9-33.3,22.2-46.1,38-54.7c3.4-2.1,6.8-3.8,9.4-5.5
	l5.5-3.9l-1.3,6.4c0,0.4-1.3,8.1,0.4,15.8c0.4,2.6,1.3,4.3,2.1,6.4c1.7,4.7,3.8,9.4,1.7,17.5c-2.1,6.8-7.7,13.7-11.9,18h7.7
	c0,0,7.7-3.5,14.1-17.1C299.6,152.5,293.2,145.2,289.4,133.3z M223.3,397.8L223.3,397.8h0.4c0-0.4,0-0.4,0.4-0.4c0,0,0,0,0.4-0.5
	c0.4,0,0.4,0,0.9,0v8.5c0,0,0,0,0,0.5H225v0.4h5.1v-0.4c0,0,0,0-0.4,0c0-0.5,0-0.5,0-0.5v-12.8c0.4-0.4,0.4-0.4,0.9-0.4H225
	c0,0,0.4,0,0.4,0.4l0,0v0.9v0.5c-0.4,0-0.4,0-0.9,0l-0.4,0.4c0,0,0,0-0.4,0c0,0,0,0,0-0.4c0,0,0,0,0-0.5h-0.4V397.8z M236.1,402.1
	L236.1,402.1l-2.1,3.4h0.4h0.4h0.4c0.4,0,0.9,0.5,1.3,0.5c0.4,0,0.9,0,1.3,0c0.9,0.4,1.3,0.4,2.1,0.4c0.9,0,2.1-0.4,3-0.4
	c0.9-0.5,1.7-0.9,2.6-1.7c0.9-0.5,1.3-1.3,1.7-2.2c0.4-0.9,0.9-2.1,0.9-3.4c0-0.9-0.4-2.1-0.4-3c-0.4-0.9-0.9-1.3-1.7-2.2
	c-0.4-0.4-1.3-0.9-2.1-1.3c-1.3,0-2.1-0.5-3.4-0.5c-0.4,0-1.3,0-2.1,0.5c-0.4,0-1.3,0.4-1.7,0.9c-0.9,0.4-1.3,0.9-1.7,1.3
	c-0.4,0.9-0.4,1.3-0.4,2.2c0,0.9,0,1.3,0,2.1c0.4,0.5,0.9,0.9,1.3,1.3c0.4,0.4,1.3,0.9,1.7,0.9c0.9,0.4,1.3,0.4,2.1,0.4
	c0.9,0,1.7,0,2.6-0.4c0.4,0,1.3-0.5,2.6-0.9c-0.4,0.4-0.4,1.3-0.9,1.7c0,0.4-0.4,0.9-0.9,1.3c-0.4,0-0.9,0.5-1.3,0.5
	c-0.9,0.4-1.3,0.4-1.7,0.4c-0.4,0-0.9,0-1.3,0c-0.4-0.4-0.9-0.4-1.3-0.4s-0.4-0.5-0.9-0.5v-0.4v-0.5H236.1z M240.8,394.8
	L240.8,394.8c0,0,0.4,0,0.9,0c0,0,0.4,0,0.9,0.4c0.4,0,0.4,0,0.9,0.5c0,0,0,0.4,0,0.9c0,0.4,0,0.9,0,0.9c-0.4,0.4-0.4,0.9-0.9,0.9
	s-0.9,0-0.9,0.4c-0.4,0-0.9,0-0.9,0c-0.4,0-0.9,0-1.3,0c0-0.4-0.4-0.4-0.9-0.4c-0.4,0-0.4-0.5-0.9-0.9c0,0,0-0.5,0-0.9
	c0-0.5,0-0.9,0-0.9c0.4-0.5,0.4-0.5,0.9-0.5c0.4-0.4,0.9-0.4,0.9-0.4C239.9,394.8,240.3,394.8,240.8,394.8z M258.2,392.3
	L258.2,392.3c-1.3,0-2.1,0.4-3,0.9c-0.9,0-1.7,0.9-2.6,1.3c-0.4,0.9-0.9,1.3-1.3,2.2c-0.4,0.9-0.9,2.1-0.9,3c0,1.3,0.4,2.2,0.9,3
	c0.4,0.9,0.9,1.7,1.3,2.1c0.9,0.9,1.7,1.3,2.6,1.7c0.9,0,1.7,0.5,3,0.5c0.9,0,1.7-0.5,2.6-0.5c0.9-0.4,1.7-0.9,2.6-1.7
	c0.4-0.4,0.9-1.3,1.3-2.1c0.4-0.9,0.9-1.7,0.9-3c0-0.9-0.4-2.1-0.9-3c-0.4-0.9-0.9-1.3-1.3-2.2c-0.9-0.4-1.7-1.3-2.6-1.3
	C260,392.7,259.1,392.3,258.2,392.3z M258.2,395.7L258.2,395.7c0.4,0,0.9,0,1.3,0c0.4,0.4,0.9,0.9,0.9,1.3c0.4,0.5,0.9,0.9,0.9,1.3
	c0,0.4,0,0.9,0,1.3c0,0.5,0,0.9,0,1.7c0,0.5-0.4,0.9-0.9,1.3c0,0-0.4,0.4-0.9,0.9c-0.4,0-0.9,0.4-1.3,0.4c-0.9,0-1.3-0.4-1.7-0.4
	c-0.4-0.5-0.9-0.9-0.9-0.9c-0.4-0.5-0.4-0.9-0.9-1.3c0-0.9,0-1.3,0-1.7c0-0.4,0-0.9,0-1.3c0.4-0.5,0.4-0.9,0.9-1.3
	c0-0.4,0.4-0.9,0.9-1.3C257,395.7,257.4,395.7,258.2,395.7z M268.1,395.2L268.1,395.2h9l-6,9.8c0,0.4-0.4,0.4-0.4,0.4
	c0,0.5-0.4,0.5-0.4,0.5v0.4h6v-0.4c-0.4,0-0.4,0-0.4,0c-0.4-0.5-0.4-0.5-0.4-0.5c0-0.4,0-0.4,0.4-0.4c0-0.5,0-0.5,0-0.9l5.5-9.4
	v-3.4h-0.4c0,0.4,0,0.4-0.4,0.4v0.5h-12.4v-0.5c-0.4,0-0.4,0-0.4-0.4v4.3C267.6,395.7,267.6,395.2,268.1,395.2L268.1,395.2z"/>
</svg>
